<?xml version="1.0" encoding="UTF-8" standalone="no"?>
<svg
   enable-background="new"
   height="50.999832"
   viewBox="0 0 240.15759 50.999832"
   width="240.15759"
   version="1.1"
   id="svg20"
   sodipodi:docname="docs_logo.svg"
   inkscape:version="1.3 (0e150ed6c4, 2023-07-21)"
   xml:space="preserve"
   xmlns:inkscape="http://www.inkscape.org/namespaces/inkscape"
   xmlns:sodipodi="http://sodipodi.sourceforge.net/DTD/sodipodi-0.dtd"
   xmlns="http://www.w3.org/2000/svg"
   xmlns:svg="http://www.w3.org/2000/svg"><defs
     id="defs20" /><sodipodi:namedview
     id="namedview20"
     pagecolor="#ffffff"
     bordercolor="#000000"
     borderopacity="0.25"
     inkscape:showpageshadow="2"
     inkscape:pageopacity="0.0"
     inkscape:pagecheckerboard="0"
     inkscape:deskcolor="#d1d1d1"
     inkscape:zoom="2.4400644"
     inkscape:cx="83.60435"
     inkscape:cy="5.5326408"
     inkscape:window-width="1920"
     inkscape:window-height="1012"
     inkscape:window-x="0"
     inkscape:window-y="0"
     inkscape:window-maximized="1"
     inkscape:current-layer="g20" /><linearGradient
     id="a"
     gradientTransform="matrix(.86836616 0 0 -.86836616 19.116688 354.85379)"
     gradientUnits="userSpaceOnUse"
     x1="-50.169083"
     x2="266.50421"
     y1="214.34602"
     y2="111.7482"><stop
       offset="0"
       stop-color="#ff4e78"
       id="stop1"
       style="stop-color:#bd93f9;stop-opacity:1;" /><stop
       offset="1"
       stop-color="#f67b7b"
       id="stop2"
       style="stop-color:#c1aede;stop-opacity:1;" /></linearGradient><g
     transform="translate(39.50845 -202.73825)"
     id="g20"
     inkscape:label="g20"><path
       d="m -36.352685,214.76907 7.898437,13.27148 c 0.249807,0.35818 0.249807,0.83323 0,1.19141 l -7.898437,13.81445 H 33.05421 l -0.04164,-28.22204 z m 212.441675,-8.88051 v 28.27734 h 21.4043 l -7.89844,-13.81445 c -0.24981,-0.35818 -0.24981,-0.83323 0,-1.19141 l 7.89649,-13.27148 z m -143.076606,8.93571 0.04183,28.22214 c 1.916785,-1.92132 5.311962,-4.63213 11.911452,-4.63213 v -0.002 l 122.410154,-0.002 c 4.65321,-0.0933 8.2618,-3.35204 8.71337,-4.24438 l -2e-4,-28.27734 c -1.88269,1.61766 -4.96029,4.27519 -8.61161,4.24438 v 0.006 h -0.16897 c -0.0115,3e-5 -122.342784,0.002 -122.342784,0.002 -4.820702,-0.11635 -9.145109,0.60314 -11.953048,4.68343 z"
       fill="#ff3252"
       stroke-linecap="round"
       stroke-linejoin="round"
       stroke-miterlimit="3.85"
       stroke-width="6.3"
       id="path2"
       style="display:inline" /><path
       d="m 176.37136,202.73827 c -3.74647,0 -4.12033,4.24977 -8.90455,4.24977 -1.16134,-0.006 -122.501906,0.002 -122.501906,0.002 l 0.07617,0.002 c -2.589638,-0.0625 -5.227607,0.0743 -7.798829,0.92773 -2.02404,0.67183 -3.885155,2.01591 -5.498046,3.75195 l -68.09375,-0.0527 c -2.444709,-0.002 -3.959469,2.66103 -2.708985,4.76172 l 7.304688,12.27539 -7.333985,12.82617 c -1.20168,2.10019 0.314696,4.71486 2.734375,4.71485 h 69.408203 c 0.764871,-0.0379 1.489744,-0.35313 2.58917,-1.44664 1.099427,-1.09351 3.5841,-3.18621 9.320987,-3.18621 1.739929,4e-5 3.15041,-0.002 3.15041,-0.002 l 122.019048,-0.0205 c 1.86832,-0.0185 4.80158,-1.38781 6.53257,-4.22564 h 20.82722 c 2.41968,2e-5 3.93606,-2.61466 2.73438,-4.71485 l -7.334,-12.82595 7.30469,-12.27539 c 1.25004,-2.09994 -0.26319,-4.76174 -2.70703,-4.76172 z"
       fill="#293252"
       stroke-linecap="round"
       stroke-linejoin="round"
       stroke-miterlimit="3.85"
       id="path3"
       style="display:inline;fill:#282a36;fill-opacity:1"
       inkscape:label="BannerOutline" /><path
       d="m -36.352483,214.76907 7.898437,13.27148 c 0.249807,0.35818 0.249807,0.83323 0,1.19141 l -7.898437,13.81445 h 67.294674 v -28.27734 z m 212.441673,-8.88051 v 28.27734 h 21.4043 l -7.89844,-13.81445 c -0.24981,-0.35818 -0.24981,-0.83323 0,-1.19141 l 7.89649,-13.27148 z m -143.061061,9.13658 -3.1e-5,27.78894 c 0.0083,0.0578 0.01128,0.11542 0.0098,0.17383 3.823563,-4.01646 5.328272,-4.57363 11.927766,-4.57363 v -0.002 l 122.410156,-0.002 c 4.65321,-0.0933 6.10098,-1.97074 6.55255,-2.86308 v -27.20191 c -1.88269,1.61766 -2.79967,1.81846 -6.45099,1.78765 v 0.006 h -0.13477 c -0.0115,3e-5 -0.0217,0.002 -0.0332,0.002 -0.0113,-4.8e-4 -0.0239,-9.5e-4 -0.0352,-0.002 l -122.308586,0.002 c -5.051311,0 -7.839192,-0.026 -11.9375,4.8843 z"
       fill="url(#a)"
       id="path4"
       style="display:inline"
       inkscape:label="BannerCenter" /><text
       xml:space="preserve"
       style="font-size:21.3333px;fill:#ffffff;fill-opacity:1;stroke-width:1.374"
       x="49.390568"
       y="232.11296"
       id="text20"
       inkscape:label="Text"><tspan
         sodipodi:role="line"
         id="tspan20"
         x="49.390568"
         y="232.11296"
         style="font-style:normal;font-variant:normal;font-weight:bold;font-stretch:normal;font-size:21.3333px;font-family:Roboto;-inkscape-font-specification:Roboto;fill:#ffffff;fill-opacity:1">OGUI DOCS</tspan></text><circle
       style="fill:#282a36;fill-opacity:1;stroke-width:1.16112"
       id="path20"
       cx="0.2014038"
       cy="228.73613"
       r="24.758947"
       inkscape:label="GamepadOutline" /><g
       id="g12"
       style="opacity:1"
       transform="matrix(0.08519326,0,0,0.08519326,-15.089713,217.15374)"
       inkscape:label="Gamepad">&#10;	&#10;	<circle
   style="opacity:1;fill:#ff4c4c;fill-opacity:1"
   id="path7214"
   cx="180"
   cy="135"
   r="251.73466"
   inkscape:label="BG" /><path
   d="M 353.93,120.47 C 345.08,74.28 324.36,-1.47 271.88,0.02 c -33.922,0.966 -26.277,35.779 -83.655,30.111 -0.809,1.224 -13.834,1.224 -14.643,0 C 116.206,35.799 123.848,0.986 89.927,0.02 37.447,-1.474 16.729,74.28 7.88,120.47 c -11.283,58.903 -18.08,171.4 48.263,145.8 7.434,-2.867 91.267,-54.054 101.35,-54.054 h 46.818 c 10.086,0 93.924,51.17 101.35,54.054 63.87,24.79 59.55,-86.9 48.27,-145.8 z"
   id="path4-7"
   style="display:inline"
   sodipodi:nodetypes="cccccccssccc"
   inkscape:label="gamepad" />&#10;	&#10;	&#10;	&#10;<ellipse
   style="display:inline;fill:#ffffff;fill-opacity:1;stroke-width:0.976569"
   id="path2726"
   cx="233.2224"
   cy="160.48039"
   rx="26.172941"
   ry="26.021637"
   inkscape:label="rightstick" /><ellipse
   style="display:inline;fill:#ffffff;fill-opacity:1;stroke-width:0.976569"
   id="ellipse2728"
   cx="81.950928"
   cy="96.433731"
   rx="26.172941"
   ry="26.021637"
   inkscape:label="leftstick" /><ellipse
   style="display:inline;fill:none;fill-opacity:1;stroke:#ffffff;stroke-width:1.23925;stroke-dasharray:none;stroke-opacity:1"
   id="ellipse2883"
   cx="128.7485"
   cy="162.67163"
   rx="28.109674"
   ry="27.947176"
   inkscape:label="dpad" /><circle
   style="display:inline;fill:#ff4c4c;fill-opacity:1;stroke-width:1.05183"
   id="path2834"
   cx="297.56143"
   cy="96.394508"
   r="10.460885"
   inkscape:label="b_button" /><circle
   style="display:inline;fill:#ff4c4c;fill-opacity:1;stroke-width:1.05183"
   id="circle2855"
   cx="256.33746"
   cy="96.394508"
   r="10.460885"
   inkscape:label="x_button" /><circle
   style="display:inline;fill:#ff4c4c;fill-opacity:1;stroke-width:1.05183"
   id="circle2857"
   cx="276.85236"
   cy="75.788643"
   r="10.460885"
   inkscape:label="y_button" /><circle
   style="display:inline;fill:#ff4c4c;fill-opacity:1;stroke-width:1.05183"
   id="circle2859"
   cx="276.85236"
   cy="116.60423"
   r="10.460885"
   inkscape:label="a_button" /><rect
   style="display:inline;fill:#ffffff;fill-opacity:1;stroke:none;stroke-width:1.43282;stroke-dasharray:none;stroke-opacity:1"
   id="rect2962"
   width="14.649614"
   height="54.891647"
   x="193.04045"
   y="251.93565"
   inkscape:label="dpad_y"
   transform="translate(-71.734665,-116.73466)" /><rect
   style="display:inline;fill:#ffffff;fill-opacity:1;stroke:none;stroke-width:1.43583;stroke-dasharray:none;stroke-opacity:1"
   id="rect2964"
   width="14.649614"
   height="55.122322"
   x="272.05667"
   y="-228.04176"
   inkscape:label="dpad_x"
   transform="rotate(90,22.499997,-94.234663)" /></g></g></svg>
